<?xml version="1.0" standalone="no"?>
<!DOCTYPE svg PUBLIC "-//W3C//DTD SVG 20010904//EN"
 "http://www.w3.org/TR/2001/REC-SVG-20010904/DTD/svg10.dtd">
<svg version="1.0" xmlns="http://www.w3.org/2000/svg"
 width="3057.000000pt" height="3057.000000pt" viewBox="0 0 3057.000000 3057.000000"
 preserveAspectRatio="xMidYMid meet">
<metadata>
Created by potrace 1.14, written by Peter Selinger 2001-2017
</metadata>
<g transform="translate(0.000000,3057.000000) scale(0.100000,-0.100000)"
fill="#000000" stroke="none">
<path d="M14867 23334 c-1 -1 -36 -4 -77 -7 -75 -6 -114 -12 -128 -20 -4 -3
-34 -8 -66 -11 -32 -4 -62 -8 -65 -10 -3 -2 -33 -6 -66 -10 -117 -11 -372 -63
-480 -97 -16 -5 -68 -20 -115 -33 -95 -27 -181 -58 -222 -82 -16 -8 -28 -12
-28 -7 0 4 -4 3 -8 -4 -9 -14 -142 -83 -161 -83 -17 0 -111 -53 -111 -62 0 -5
-6 -8 -13 -8 -7 0 -24 -11 -39 -25 -15 -14 -29 -25 -32 -25 -12 0 -130 -119
-159 -160 -18 -25 -52 -85 -76 -135 -24 -49 -55 -104 -68 -122 -12 -17 -23
-35 -23 -40 0 -5 -14 -24 -30 -43 -43 -50 -50 -58 -50 -65 0 -5 -98 -135 -109
-145 -10 -8 -61 -89 -61 -96 0 -4 -11 -21 -24 -38 -23 -31 -70 -117 -68 -126
1 -3 -5 -14 -12 -25 -6 -11 -18 -39 -26 -62 -7 -24 -17 -43 -22 -43 -4 0 -8
-7 -8 -15 0 -8 -18 -48 -40 -88 -23 -39 -52 -97 -66 -127 -41 -90 -55 -113
-102 -160 -24 -25 -50 -56 -57 -70 -7 -14 -30 -42 -51 -62 -22 -21 -50 -50
-64 -66 -14 -15 -68 -73 -120 -128 -116 -121 -189 -205 -215 -249 -11 -19 -42
-72 -70 -120 -27 -47 -69 -116 -92 -153 -24 -37 -43 -73 -43 -79 0 -7 -4 -13
-9 -13 -5 0 -13 -10 -17 -22 -4 -13 -18 -47 -32 -77 -13 -30 -25 -60 -26 -65
-2 -6 -10 -27 -18 -48 -9 -20 -28 -76 -43 -125 -14 -48 -35 -111 -45 -139 -10
-29 -16 -55 -13 -58 4 -3 2 -6 -4 -6 -6 0 -15 -17 -21 -37 -37 -133 -49 -183
-44 -187 3 -4 1 -6 -4 -6 -5 0 -10 -8 -10 -17 -1 -22 -42 -158 -84 -278 -37
-106 -33 -91 -49 -185 -7 -41 -20 -111 -28 -155 -8 -44 -16 -105 -19 -135 -10
-104 -11 -115 -21 -140 -6 -14 -13 -47 -17 -73 -4 -27 -10 -59 -12 -70 -3 -12
-7 -35 -10 -52 -3 -16 -7 -41 -10 -55 -2 -14 -7 -52 -10 -85 -4 -33 -12 -91
-19 -130 -12 -68 -12 -641 1 -740 2 -22 4 -51 3 -65 0 -14 -1 -36 -2 -50 -1
-32 12 -159 23 -230 25 -149 29 -314 18 -910 -4 -244 -2 -282 27 -394 7 -31
36 -68 92 -121 46 -45 53 -55 49 -84 -4 -37 -54 -94 -95 -109 -14 -6 -66 -22
-116 -37 -165 -49 -209 -67 -290 -118 -85 -55 -107 -77 -141 -138 -12 -22 -27
-46 -34 -54 -7 -8 -10 -15 -7 -15 3 0 1 -15 -4 -32 -13 -40 -38 -151 -45 -198
-3 -19 -7 -46 -10 -60 -2 -14 -7 -140 -9 -280 -6 -275 -12 -454 -19 -565 -2
-38 -7 -151 -11 -250 -9 -277 -14 -356 -21 -405 -17 -106 -6 -324 21 -426 22
-81 25 -93 31 -139 3 -22 10 -56 15 -75 14 -54 11 -77 -13 -104 -23 -26 -48
-32 -178 -42 -147 -11 -260 -42 -343 -92 -76 -46 -139 -73 -237 -102 -76 -22
-180 -68 -191 -83 -3 -5 -10 -9 -15 -9 -15 -1 -87 -50 -115 -77 -14 -14 -42
-39 -62 -56 -55 -44 -86 -117 -121 -282 -4 -24 -78 -81 -151 -117 -39 -20 -76
-36 -81 -36 -13 0 -118 -54 -122 -62 -2 -5 -9 -8 -15 -8 -20 0 -104 -46 -170
-93 -83 -60 -337 -313 -337 -337 0 -4 -7 -10 -15 -14 -8 -3 -21 -18 -27 -33
-7 -15 -22 -44 -35 -63 -38 -60 -100 -232 -107 -295 -4 -33 -9 -80 -13 -105
-16 -112 -1 -354 25 -394 3 -6 7 -13 7 -16 2 -15 44 -97 56 -110 18 -20 65
-82 108 -145 19 -27 38 -51 43 -53 4 -2 8 -8 8 -13 0 -5 8 -18 17 -29 30 -35
83 -142 83 -167 0 -13 9 -43 20 -66 54 -112 36 -152 -121 -269 -42 -32 -88
-63 -103 -69 -14 -7 -26 -17 -26 -22 0 -6 -3 -8 -6 -4 -3 3 -32 -12 -64 -34
-31 -21 -63 -39 -69 -39 -6 0 -11 -4 -11 -10 0 -5 -7 -10 -15 -10 -8 0 -15 -4
-15 -9 0 -5 -15 -15 -32 -22 -18 -7 -39 -19 -46 -26 -7 -7 -21 -13 -31 -13
-10 0 -21 -3 -25 -7 -3 -4 -12 -8 -19 -9 -7 -1 -25 -8 -42 -15 -33 -13 -38
-15 -77 -22 -15 -3 -32 -8 -37 -11 -4 -3 -35 -8 -67 -11 -62 -5 -148 -15 -175
-20 -9 -2 -40 -6 -70 -10 -53 -7 -119 -18 -169 -30 -14 -4 -29 -7 -35 -8 -5
-2 -16 -6 -22 -10 -7 -5 -13 -6 -13 -3 0 8 -203 -64 -219 -77 -8 -7 -16 -11
-18 -9 -8 7 -141 -41 -192 -70 -96 -54 -251 -161 -297 -205 -7 -7 -15 -13 -18
-13 -8 0 -127 -90 -146 -110 -8 -9 -40 -32 -70 -51 -30 -20 -90 -59 -133 -87
-43 -28 -87 -54 -98 -57 -10 -4 -19 -10 -19 -14 0 -3 -15 -15 -32 -25 -93 -53
-238 -159 -292 -212 -97 -97 -298 -354 -301 -384 -1 -3 -11 -25 -24 -50 -21
-40 -67 -161 -76 -200 -2 -8 -12 -51 -24 -96 -29 -113 -36 -209 -21 -288 17
-91 51 -131 160 -189 70 -37 107 -48 210 -64 68 -10 21196 -11 21300 -1 169
17 203 21 275 34 127 22 300 85 351 127 52 43 74 94 90 217 25 186 -24 366
-169 615 -24 40 -112 151 -135 169 -14 11 -38 32 -56 48 -17 15 -36 28 -42 28
-7 0 -14 3 -16 8 -8 18 -174 100 -298 147 -41 16 -83 36 -94 44 -10 9 -21 15
-25 15 -29 -6 -142 73 -251 177 -15 15 -31 28 -36 30 -23 10 -76 110 -100 188
-26 88 -49 152 -65 183 -5 10 -9 23 -9 30 0 6 -20 52 -44 102 -61 126 -116
245 -116 249 0 3 -9 24 -19 48 -11 24 -20 47 -20 51 -2 20 -55 127 -80 163
-27 39 -81 146 -81 162 0 4 -10 24 -22 43 -12 19 -22 37 -23 40 0 3 -16 28
-35 55 -43 63 -124 141 -220 213 -41 31 -81 62 -88 69 -7 7 -17 13 -22 13 -5
0 -11 8 -15 18 -3 9 -29 33 -58 52 -28 19 -55 39 -58 43 -3 5 -10 8 -15 7 -5
-1 -13 7 -19 17 -5 10 -18 24 -27 31 -20 15 -23 57 -7 98 14 38 89 107 163
150 34 20 64 41 68 48 4 6 8 7 8 3 0 -13 100 106 100 120 0 6 11 24 24 40 13
15 27 39 31 53 4 14 16 45 27 69 50 110 44 314 -16 612 -2 8 -6 21 -10 29 -3
8 -18 67 -31 130 -32 145 -29 132 -56 215 -13 39 -24 72 -24 75 -1 3 -4 12 -7
20 -3 8 -16 51 -29 95 -12 44 -31 98 -40 120 -55 127 -89 209 -89 216 0 4 -5
20 -12 36 -6 15 -13 37 -15 48 -7 43 -45 150 -77 218 -18 40 -37 84 -41 97
-13 42 -56 123 -90 170 -28 39 -50 75 -99 165 -6 11 -15 23 -21 27 -5 4 -6 8
-1 8 5 0 4 6 -1 13 -5 6 -15 32 -23 57 -12 43 -67 196 -91 257 -10 26 -22 52
-62 143 -9 19 -31 69 -49 110 -50 112 -87 180 -98 180 -6 0 -10 6 -10 14 0 8
-8 21 -18 28 -37 28 -115 124 -139 173 -23 44 -79 132 -93 145 -3 3 -17 21
-30 40 -14 19 -33 44 -43 55 -10 11 -28 37 -40 58 -11 20 -23 37 -27 37 -3 0
-17 25 -30 55 -13 30 -28 55 -33 55 -4 0 -6 4 -3 9 3 5 -9 31 -27 58 -34 51
-35 53 -42 111 -5 41 -24 172 -31 214 -2 15 -8 38 -14 52 -5 15 -8 26 -5 26 2
0 -10 39 -26 88 -16 48 -29 88 -28 90 8 23 -68 239 -110 312 -62 107 -65 113
-84 134 -35 41 -116 158 -122 177 -4 10 -11 19 -16 19 -5 0 -9 5 -9 10 0 6
-18 36 -39 68 -22 31 -45 71 -52 87 -8 17 -16 32 -19 35 -3 3 -28 43 -55 90
-27 47 -56 92 -65 100 -16 16 -36 46 -47 70 -8 19 -89 125 -112 148 -57 56
-166 232 -161 258 1 4 -2 10 -7 13 -10 7 -53 111 -53 128 0 7 -13 42 -30 78
-16 36 -30 69 -30 74 0 5 -11 28 -24 52 -14 24 -34 68 -46 97 -11 30 -31 68
-44 85 -13 18 -30 52 -36 77 -7 25 -21 57 -32 72 -11 16 -16 28 -11 28 4 0 -7
13 -25 29 -29 26 -43 54 -57 111 -9 40 -30 77 -118 206 -52 77 -112 172 -133
210 -36 64 -52 88 -80 118 -6 6 -23 34 -39 61 -28 47 -68 105 -118 168 -48 61
-214 223 -242 237 -16 8 -32 18 -35 21 -11 14 -67 37 -105 43 -22 4 -65 16
-95 28 -30 11 -63 22 -73 24 -10 2 -46 16 -80 33 -34 16 -89 38 -123 49 -80
27 -148 54 -154 61 -3 4 -30 18 -60 33 -135 65 -372 259 -375 308 0 3 -4 10
-8 17 -10 17 -17 79 -21 203 -5 132 -33 258 -76 334 -31 55 -156 189 -207 223
-12 8 -25 29 -28 46 -4 18 -7 39 -9 47 -3 14 -14 39 -97 218 -22 46 -39 86
-39 89 0 2 -6 11 -12 18 -26 29 -36 42 -49 67 -31 57 -145 180 -230 248 -24
19 -68 59 -99 88 -30 28 -57 52 -61 52 -3 0 -28 28 -55 63 -27 34 -52 63 -55
65 -4 2 -17 12 -30 23 -12 10 -26 19 -31 19 -10 0 -254 246 -276 277 -6 10
-15 24 -18 31 -4 7 -19 26 -35 42 -43 42 -38 71 20 132 27 28 58 69 69 92 82
170 75 144 74 307 -1 82 -3 153 -6 157 -2 4 -7 32 -11 62 -5 53 -11 106 -19
178 -4 31 -75 185 -128 277 -40 69 -104 137 -183 196 -33 24 -63 47 -66 52 -3
4 -57 25 -120 46 -63 22 -133 46 -156 55 -23 8 -57 18 -75 22 -70 12 -129 23
-283 49 -139 24 -191 28 -405 30 -237 2 -249 3 -369 34 -114 28 -182 42 -281
55 -62 9 -143 26 -215 46 -58 16 -203 42 -370 65 -362 51 -390 54 -666 60 -90
2 -236 7 -324 11 -88 4 -306 8 -485 9 -179 1 -388 6 -465 10 -136 7 -295 11
-298 9z m1148 -3759 c53 -5 99 -15 180 -39 6 -2 24 -6 40 -10 17 -4 39 -12 50
-16 128 -57 201 -93 237 -117 24 -17 75 -45 113 -65 102 -50 515 -317 578
-373 10 -9 46 -34 80 -55 34 -22 67 -43 72 -48 6 -4 17 -11 25 -14 36 -14 223
-162 292 -232 42 -42 74 -76 72 -76 -4 0 18 -27 56 -70 14 -15 39 -45 55 -66
17 -21 38 -46 48 -56 9 -10 17 -20 17 -23 0 -5 82 -127 90 -135 3 -3 17 -21
30 -40 13 -19 27 -37 30 -40 3 -3 10 -12 15 -21 29 -47 65 -97 77 -110 30 -30
170 -283 157 -284 -2 0 6 -11 19 -25 12 -13 22 -30 22 -37 0 -7 5 -13 10 -13
6 0 10 -7 10 -15 0 -8 5 -15 10 -15 6 0 10 -4 10 -10 0 -5 15 -33 34 -62 63
-99 86 -156 101 -250 8 -51 24 -140 35 -198 12 -58 23 -141 25 -185 2 -44 6
-89 9 -100 2 -11 11 -49 20 -85 8 -36 18 -88 21 -115 13 -120 19 -155 40 -230
22 -77 28 -104 40 -170 13 -74 17 -90 36 -148 19 -57 40 -107 87 -209 9 -21
20 -38 25 -38 4 0 7 -5 7 -11 0 -15 52 -86 105 -144 45 -49 135 -199 135 -225
0 -19 101 -220 110 -220 8 0 23 -39 21 -52 -1 -5 4 -8 9 -8 6 0 10 -5 10 -11
0 -6 7 -25 15 -42 38 -83 80 -191 107 -277 30 -97 31 -126 12 -245 -8 -48
-145 -324 -166 -333 -5 -2 -8 -12 -8 -23 0 -10 -3 -19 -7 -19 -5 0 -17 -19
-28 -43 -11 -23 -26 -48 -32 -55 -7 -7 -13 -20 -13 -28 0 -8 -4 -22 -9 -32
-16 -31 -29 -66 -42 -107 -31 -105 -54 -164 -79 -206 -48 -79 -62 -134 -65
-257 -1 -61 4 -144 10 -183 7 -40 11 -92 9 -118 -11 -140 -16 -175 -45 -274
-18 -60 -37 -114 -44 -121 -16 -15 -67 -96 -70 -110 -2 -10 -6 -22 -23 -66 -3
-8 -6 -17 -6 -20 -2 -7 -26 -67 -42 -105 -56 -130 -92 -270 -100 -385 -3 -52
-10 -120 -15 -150 -6 -30 -12 -77 -15 -105 -3 -27 -11 -86 -19 -130 -21 -119
-26 -163 -40 -325 -4 -36 -8 -85 -11 -110 -3 -25 -7 -73 -9 -108 -2 -35 -7
-72 -10 -82 -3 -10 -7 -27 -9 -37 -2 -10 -9 -38 -16 -63 -7 -25 -14 -53 -16
-63 -2 -10 -5 -26 -8 -35 -8 -28 -16 -73 -22 -132 -3 -30 -10 -77 -15 -105
-35 -177 -28 -404 16 -496 47 -101 123 -198 184 -236 152 -96 199 -150 208
-235 3 -36 0 -56 -15 -80 -11 -18 -23 -44 -27 -58 -4 -14 -15 -36 -25 -50 -9
-14 -27 -59 -40 -100 -13 -41 -29 -84 -37 -95 -7 -11 -13 -27 -13 -37 0 -10
-4 -18 -8 -18 -5 0 -15 -12 -23 -27 -8 -15 -21 -36 -29 -46 -8 -10 -22 -27
-30 -37 -8 -10 -24 -31 -35 -46 -123 -172 -194 -246 -284 -297 -23 -13 -62
-43 -88 -68 -41 -37 -83 -74 -194 -164 -16 -12 -107 -57 -292 -144 -48 -23
-90 -41 -93 -41 -3 0 -26 -9 -51 -21 -25 -11 -53 -22 -62 -24 -46 -9 -160 -37
-188 -46 -51 -16 -825 -11 -851 5 -7 4 -12 3 -12 -1 0 -5 -26 -7 -57 -6 -73 3
-149 3 -388 -1 -104 -1 -193 -1 -197 1 -4 2 -64 5 -135 7 -70 3 -141 10 -158
16 -30 12 -224 54 -510 111 -82 16 -213 48 -290 69 -77 22 -165 45 -195 51
-68 13 -192 55 -244 81 -22 11 -67 29 -100 40 -81 27 -265 118 -324 161 -26
19 -63 43 -82 53 -19 11 -56 34 -82 52 -26 17 -50 32 -53 32 -6 0 -19 13 -78
80 -21 24 -61 83 -64 95 -1 5 -4 20 -7 33 -7 34 17 81 74 142 74 78 94 120
105 220 3 25 8 52 10 60 2 8 7 47 10 85 3 39 10 108 16 155 5 47 12 119 15
160 2 41 9 113 15 160 22 187 32 601 17 725 -8 60 -26 141 -37 160 -3 6 -6 17
-8 25 -2 16 -40 140 -53 175 -4 11 -13 33 -19 49 -17 42 -31 112 -35 174 -4
57 -8 51 89 127 21 17 47 39 57 49 21 23 75 149 82 191 2 17 5 30 6 30 4 0 11
58 15 135 8 158 5 255 -8 310 -8 35 -10 70 -5 95 4 22 10 83 13 135 11 230 14
277 20 315 3 22 8 56 11 75 3 19 7 51 10 70 2 19 6 49 8 65 7 50 18 200 19
257 1 127 -52 305 -107 364 -6 7 -56 58 -112 115 -55 57 -115 124 -134 149
-19 25 -42 53 -52 63 -24 23 -168 244 -168 257 0 5 -4 10 -10 10 -5 0 -10 4
-10 9 0 5 -31 57 -70 115 -38 58 -70 110 -70 115 0 5 -4 11 -8 13 -4 2 -34 41
-65 87 -50 72 -83 140 -104 216 -4 11 -9 22 -13 25 -14 11 -122 262 -170 395
-132 369 -127 352 -125 380 2 27 32 95 52 117 9 10 13 18 9 18 -6 0 2 12 32
45 7 8 10 15 6 15 -4 0 1 7 12 15 10 8 15 15 11 15 -4 0 2 10 13 23 12 12 29
36 37 52 9 17 22 34 29 38 8 4 14 12 14 17 0 13 95 152 117 172 56 50 250 251
288 300 30 36 65 118 80 184 5 22 44 164 49 179 1 6 6 19 10 30 22 57 55 171
63 215 2 14 9 45 14 70 6 25 12 52 14 60 5 24 44 119 80 197 29 61 125 217
144 233 4 3 27 37 53 75 56 84 99 177 133 291 42 136 136 321 197 388 10 11
18 26 18 33 0 7 3 13 8 13 4 0 20 28 35 63 68 147 111 226 149 267 22 25 49
62 59 83 26 49 42 70 110 137 88 86 140 133 189 170 25 19 47 38 48 42 2 5 8
8 13 8 4 0 44 35 87 78 107 106 195 153 377 202 44 12 87 23 95 26 14 4 272
72 295 78 6 1 36 10 68 20 104 31 170 35 302 21z"/>
</g>
</svg>
